<mxfile host="app.diagrams.net" modified="2022-08-11T11:31:19.664Z" agent="5.0 (Macintosh; Intel Mac OS X 10_15_7) AppleWebKit/537.36 (KHTML, like Gecko) Chrome/104.0.0.0 Safari/537.36" etag="l4sSAQnRuBeYHv6JiOcM" version="20.2.3" type="github">
  <diagram id="fcl4VxJA5ncnC9aE68TF" name="Page-1">
    <mxGraphModel dx="946" dy="553" grid="1" gridSize="10" guides="1" tooltips="1" connect="1" arrows="1" fold="1" page="1" pageScale="1" pageWidth="827" pageHeight="1169" background="#283618" math="0" shadow="0">
      <root>
        <mxCell id="0" />
        <mxCell id="1" parent="0" />
        <mxCell id="EODrSN0-kxntu1sQs5Ny-5" style="edgeStyle=orthogonalEdgeStyle;rounded=0;orthogonalLoop=1;jettySize=auto;html=1;labelBackgroundColor=#283618;strokeColor=#DDA15E;fontColor=#FEFAE0;" edge="1" parent="1" source="EODrSN0-kxntu1sQs5Ny-1" target="EODrSN0-kxntu1sQs5Ny-2">
          <mxGeometry relative="1" as="geometry" />
        </mxCell>
        <mxCell id="EODrSN0-kxntu1sQs5Ny-8" style="edgeStyle=orthogonalEdgeStyle;rounded=0;orthogonalLoop=1;jettySize=auto;html=1;entryX=0;entryY=0.5;entryDx=0;entryDy=0;entryPerimeter=0;labelBackgroundColor=#283618;strokeColor=#DDA15E;fontColor=#FEFAE0;" edge="1" parent="1" source="EODrSN0-kxntu1sQs5Ny-1" target="EODrSN0-kxntu1sQs5Ny-7">
          <mxGeometry relative="1" as="geometry" />
        </mxCell>
        <mxCell id="EODrSN0-kxntu1sQs5Ny-9" value="ASYNC and&lt;br&gt;Eventually&amp;nbsp;&lt;br&gt;Consistence" style="edgeLabel;html=1;align=center;verticalAlign=middle;resizable=0;points=[];labelBackgroundColor=#283618;fontColor=#FEFAE0;" vertex="1" connectable="0" parent="EODrSN0-kxntu1sQs5Ny-8">
          <mxGeometry x="-0.2668" y="1" relative="1" as="geometry">
            <mxPoint as="offset" />
          </mxGeometry>
        </mxCell>
        <mxCell id="EODrSN0-kxntu1sQs5Ny-1" value="Master Database&amp;nbsp;" style="outlineConnect=0;dashed=0;verticalLabelPosition=bottom;verticalAlign=top;align=center;html=1;shape=mxgraph.aws3.rds_db_instance;fillColor=#BC6C25;strokeColor=#DDA15E;fontColor=#FEFAE0;" vertex="1" parent="1">
          <mxGeometry x="265.25" y="260" width="49.5" height="66" as="geometry" />
        </mxCell>
        <mxCell id="EODrSN0-kxntu1sQs5Ny-4" style="edgeStyle=orthogonalEdgeStyle;rounded=0;orthogonalLoop=1;jettySize=auto;html=1;labelBackgroundColor=#283618;strokeColor=#DDA15E;fontColor=#FEFAE0;" edge="1" parent="1" source="EODrSN0-kxntu1sQs5Ny-2" target="EODrSN0-kxntu1sQs5Ny-1">
          <mxGeometry relative="1" as="geometry" />
        </mxCell>
        <mxCell id="EODrSN0-kxntu1sQs5Ny-6" value="Read / Write" style="edgeLabel;html=1;align=center;verticalAlign=middle;resizable=0;points=[];labelBackgroundColor=#283618;fontColor=#FEFAE0;" vertex="1" connectable="0" parent="EODrSN0-kxntu1sQs5Ny-4">
          <mxGeometry x="-0.123" y="2" relative="1" as="geometry">
            <mxPoint as="offset" />
          </mxGeometry>
        </mxCell>
        <mxCell id="EODrSN0-kxntu1sQs5Ny-2" value="" style="sketch=0;html=1;dashed=0;whitespace=wrap;fillColor=#BC6C25;strokeColor=#DDA15E;points=[[0.005,0.63,0],[0.1,0.2,0],[0.9,0.2,0],[0.5,0,0],[0.995,0.63,0],[0.72,0.99,0],[0.5,1,0],[0.28,0.99,0]];shape=mxgraph.kubernetes.icon;prIcon=api;fontColor=#FEFAE0;" vertex="1" parent="1">
          <mxGeometry x="200" y="120" width="180" height="48" as="geometry" />
        </mxCell>
        <mxCell id="EODrSN0-kxntu1sQs5Ny-3" value="Core Application" style="text;html=1;align=center;verticalAlign=middle;resizable=0;points=[];autosize=1;strokeColor=none;fillColor=none;fontColor=#FEFAE0;" vertex="1" parent="1">
          <mxGeometry x="235" y="100" width="110" height="30" as="geometry" />
        </mxCell>
        <mxCell id="EODrSN0-kxntu1sQs5Ny-11" style="edgeStyle=orthogonalEdgeStyle;rounded=0;orthogonalLoop=1;jettySize=auto;html=1;entryX=0.467;entryY=0.76;entryDx=0;entryDy=0;entryPerimeter=0;labelBackgroundColor=#283618;strokeColor=#DDA15E;fontColor=#FEFAE0;" edge="1" parent="1" source="EODrSN0-kxntu1sQs5Ny-7" target="EODrSN0-kxntu1sQs5Ny-10">
          <mxGeometry relative="1" as="geometry">
            <Array as="points">
              <mxPoint x="455" y="157" />
            </Array>
          </mxGeometry>
        </mxCell>
        <mxCell id="EODrSN0-kxntu1sQs5Ny-12" value="Read" style="edgeLabel;html=1;align=center;verticalAlign=middle;resizable=0;points=[];labelBackgroundColor=#283618;fontColor=#FEFAE0;" vertex="1" connectable="0" parent="EODrSN0-kxntu1sQs5Ny-11">
          <mxGeometry x="-0.0929" y="-1" relative="1" as="geometry">
            <mxPoint as="offset" />
          </mxGeometry>
        </mxCell>
        <mxCell id="EODrSN0-kxntu1sQs5Ny-7" value="Replica" style="outlineConnect=0;dashed=0;verticalLabelPosition=bottom;verticalAlign=top;align=center;html=1;shape=mxgraph.aws3.rds_db_instance_read_replica;fillColor=#BC6C25;strokeColor=#DDA15E;fontColor=#FEFAE0;" vertex="1" parent="1">
          <mxGeometry x="430" y="260" width="49.5" height="66" as="geometry" />
        </mxCell>
        <mxCell id="EODrSN0-kxntu1sQs5Ny-10" value="" style="sketch=0;html=1;dashed=0;whitespace=wrap;fillColor=#BC6C25;strokeColor=#DDA15E;points=[[0.005,0.63,0],[0.1,0.2,0],[0.9,0.2,0],[0.5,0,0],[0.995,0.63,0],[0.72,0.99,0],[0.5,1,0],[0.28,0.99,0]];shape=mxgraph.kubernetes.icon;prIcon=api;fontColor=#FEFAE0;" vertex="1" parent="1">
          <mxGeometry x="364.75" y="120" width="180" height="48" as="geometry" />
        </mxCell>
        <mxCell id="EODrSN0-kxntu1sQs5Ny-13" value="Reporting" style="text;html=1;align=center;verticalAlign=middle;resizable=0;points=[];autosize=1;strokeColor=none;fillColor=none;fontColor=#FEFAE0;" vertex="1" parent="1">
          <mxGeometry x="420" y="100" width="80" height="30" as="geometry" />
        </mxCell>
      </root>
    </mxGraphModel>
  </diagram>
</mxfile>
